<mxfile host="app.diagrams.net" agent="Mozilla/5.0 (Windows NT 10.0; Win64; x64) AppleWebKit/537.36 (KHTML, like Gecko) Chrome/127.0.0.0 Safari/537.36" version="24.7.6">
  <diagram name="Page-1" id="xeXypculBDmG-yrqOTY-">
    <mxGraphModel dx="913" dy="514" grid="1" gridSize="10" guides="1" tooltips="1" connect="1" arrows="1" fold="1" page="1" pageScale="1" pageWidth="850" pageHeight="1100" math="0" shadow="0">
      <root>
        <mxCell id="0" />
        <mxCell id="1" parent="0" />
        <mxCell id="zBAQ8DqicAWGqdjLMJXy-1" value="" style="shape=image;html=1;verticalAlign=top;verticalLabelPosition=bottom;labelBackgroundColor=#ffffff;imageAspect=0;aspect=fixed;image=https://cdn2.iconfinder.com/data/icons/electronic-13/480/3-electronic-arduino-chipset-icon-2-128.png" parent="1" vertex="1">
          <mxGeometry x="60" y="110" width="100" height="100" as="geometry" />
        </mxCell>
        <mxCell id="zBAQ8DqicAWGqdjLMJXy-2" value="" style="dashed=0;outlineConnect=0;html=1;align=center;labelPosition=center;verticalLabelPosition=bottom;verticalAlign=top;shape=mxgraph.weblogos.arduino;fillColor=#36868D;strokeColor=none" parent="1" vertex="1">
          <mxGeometry x="100" y="155" width="20" height="10" as="geometry" />
        </mxCell>
        <mxCell id="zBAQ8DqicAWGqdjLMJXy-3" value="" style="shape=image;html=1;verticalAlign=top;verticalLabelPosition=bottom;labelBackgroundColor=#ffffff;imageAspect=0;aspect=fixed;image=https://cdn2.iconfinder.com/data/icons/electronic-13/480/3-electronic-arduino-chipset-icon-2-128.png" parent="1" vertex="1">
          <mxGeometry x="60" y="200" width="100" height="100" as="geometry" />
        </mxCell>
        <mxCell id="zBAQ8DqicAWGqdjLMJXy-4" value="" style="dashed=0;outlineConnect=0;html=1;align=center;labelPosition=center;verticalLabelPosition=bottom;verticalAlign=top;shape=mxgraph.weblogos.arduino;fillColor=#36868D;strokeColor=none" parent="1" vertex="1">
          <mxGeometry x="100" y="245" width="20" height="10" as="geometry" />
        </mxCell>
        <mxCell id="zBAQ8DqicAWGqdjLMJXy-5" value="" style="shape=image;html=1;verticalAlign=top;verticalLabelPosition=bottom;labelBackgroundColor=#ffffff;imageAspect=0;aspect=fixed;image=https://cdn2.iconfinder.com/data/icons/electronic-13/480/3-electronic-arduino-chipset-icon-2-128.png" parent="1" vertex="1">
          <mxGeometry x="60" y="290" width="100" height="100" as="geometry" />
        </mxCell>
        <mxCell id="zBAQ8DqicAWGqdjLMJXy-6" value="" style="dashed=0;outlineConnect=0;html=1;align=center;labelPosition=center;verticalLabelPosition=bottom;verticalAlign=top;shape=mxgraph.weblogos.arduino;fillColor=#36868D;strokeColor=none" parent="1" vertex="1">
          <mxGeometry x="100" y="335" width="20" height="10" as="geometry" />
        </mxCell>
        <mxCell id="zBAQ8DqicAWGqdjLMJXy-7" value="" style="shape=image;html=1;verticalAlign=top;verticalLabelPosition=bottom;labelBackgroundColor=#ffffff;imageAspect=0;aspect=fixed;image=https://cdn2.iconfinder.com/data/icons/electronic-13/480/3-electronic-arduino-chipset-icon-2-128.png" parent="1" vertex="1">
          <mxGeometry x="60" y="380" width="100" height="100" as="geometry" />
        </mxCell>
        <mxCell id="zBAQ8DqicAWGqdjLMJXy-8" value="" style="dashed=0;outlineConnect=0;html=1;align=center;labelPosition=center;verticalLabelPosition=bottom;verticalAlign=top;shape=mxgraph.weblogos.arduino;fillColor=#36868D;strokeColor=none" parent="1" vertex="1">
          <mxGeometry x="100" y="425" width="20" height="10" as="geometry" />
        </mxCell>
        <mxCell id="zBAQ8DqicAWGqdjLMJXy-9" value="Internet&lt;div&gt;(Cloudflare tunnel/&lt;/div&gt;&lt;div&gt;Local tunnel)&lt;/div&gt;" style="ellipse;shape=cloud;whiteSpace=wrap;html=1;shadow=1;" parent="1" vertex="1">
          <mxGeometry x="180" y="245" width="150" height="115" as="geometry" />
        </mxCell>
        <mxCell id="zBAQ8DqicAWGqdjLMJXy-10" value="" style="endArrow=none;html=1;rounded=0;exitX=0.25;exitY=0.25;exitDx=0;exitDy=0;exitPerimeter=0;" parent="1" source="zBAQ8DqicAWGqdjLMJXy-9" target="zBAQ8DqicAWGqdjLMJXy-2" edge="1">
          <mxGeometry width="50" height="50" relative="1" as="geometry">
            <mxPoint x="180" y="470" as="sourcePoint" />
            <mxPoint x="180" y="160" as="targetPoint" />
          </mxGeometry>
        </mxCell>
        <mxCell id="zBAQ8DqicAWGqdjLMJXy-11" value="" style="endArrow=none;html=1;rounded=0;exitX=0.13;exitY=0.77;exitDx=0;exitDy=0;exitPerimeter=0;" parent="1" source="zBAQ8DqicAWGqdjLMJXy-9" target="zBAQ8DqicAWGqdjLMJXy-6" edge="1">
          <mxGeometry width="50" height="50" relative="1" as="geometry">
            <mxPoint x="244" y="400" as="sourcePoint" />
            <mxPoint x="120" y="300" as="targetPoint" />
          </mxGeometry>
        </mxCell>
        <mxCell id="zBAQ8DqicAWGqdjLMJXy-12" value="" style="endArrow=none;html=1;rounded=0;exitX=0.31;exitY=0.8;exitDx=0;exitDy=0;exitPerimeter=0;" parent="1" source="zBAQ8DqicAWGqdjLMJXy-9" target="zBAQ8DqicAWGqdjLMJXy-8" edge="1">
          <mxGeometry width="50" height="50" relative="1" as="geometry">
            <mxPoint x="234" y="525" as="sourcePoint" />
            <mxPoint x="140" y="500" as="targetPoint" />
          </mxGeometry>
        </mxCell>
        <mxCell id="zBAQ8DqicAWGqdjLMJXy-13" value="" style="endArrow=none;html=1;rounded=0;exitX=0.07;exitY=0.4;exitDx=0;exitDy=0;exitPerimeter=0;" parent="1" source="zBAQ8DqicAWGqdjLMJXy-9" target="zBAQ8DqicAWGqdjLMJXy-4" edge="1">
          <mxGeometry width="50" height="50" relative="1" as="geometry">
            <mxPoint x="270" y="295" as="sourcePoint" />
            <mxPoint x="146" y="195" as="targetPoint" />
          </mxGeometry>
        </mxCell>
        <mxCell id="zBAQ8DqicAWGqdjLMJXy-14" value="Garudan&lt;br&gt;IOT&lt;div&gt;Monitors&lt;/div&gt;" style="text;html=1;align=center;verticalAlign=middle;whiteSpace=wrap;rounded=0;" parent="1" vertex="1">
          <mxGeometry x="80" y="490" width="60" height="30" as="geometry" />
        </mxCell>
        <mxCell id="zBAQ8DqicAWGqdjLMJXy-17" value="" style="verticalLabelPosition=bottom;verticalAlign=top;html=1;shape=mxgraph.basic.patternFillRect;fillStyle=diagRev;step=5;fillStrokeWidth=0.2;fillStrokeColor=#dddddd;opacity=30;dashed=1;" parent="1" vertex="1">
          <mxGeometry x="50" y="105" width="120" height="435" as="geometry" />
        </mxCell>
        <mxCell id="zBAQ8DqicAWGqdjLMJXy-18" value="Express.js&lt;div&gt;&amp;nbsp;Application&lt;/div&gt;" style="rounded=1;whiteSpace=wrap;html=1;glass=1;" parent="1" vertex="1">
          <mxGeometry x="440" y="250" width="180" height="105" as="geometry" />
        </mxCell>
        <mxCell id="zBAQ8DqicAWGqdjLMJXy-19" value="MongoDB&amp;nbsp;&lt;div&gt;Atlas&lt;/div&gt;&lt;div&gt;Cloud&lt;/div&gt;" style="rounded=0;whiteSpace=wrap;html=1;glass=1;" parent="1" vertex="1">
          <mxGeometry x="470" y="428.75" width="120" height="75" as="geometry" />
        </mxCell>
        <mxCell id="zBAQ8DqicAWGqdjLMJXy-20" value="" style="dashed=0;outlineConnect=0;html=1;align=center;labelPosition=center;verticalLabelPosition=bottom;verticalAlign=top;shape=mxgraph.weblogos.mongodb" parent="1" vertex="1">
          <mxGeometry x="480" y="448.15000000000003" width="20" height="36.2" as="geometry" />
        </mxCell>
        <mxCell id="zBAQ8DqicAWGqdjLMJXy-23" value="" style="outlineConnect=0;dashed=0;verticalLabelPosition=bottom;verticalAlign=top;align=center;html=1;shape=mxgraph.aws3.android;fillColor=#205E00;gradientColor=none;" parent="1" vertex="1">
          <mxGeometry x="450" y="283.75" width="40" height="47.5" as="geometry" />
        </mxCell>
        <mxCell id="iFSGIv8E7GdOGQ83MVvU-1" value="Power BI&lt;div&gt;Grafana&lt;/div&gt;" style="rounded=0;whiteSpace=wrap;html=1;glass=1;" vertex="1" parent="1">
          <mxGeometry x="680" y="265" width="120" height="75" as="geometry" />
        </mxCell>
        <mxCell id="iFSGIv8E7GdOGQ83MVvU-3" value="Gen AI" style="rounded=0;whiteSpace=wrap;html=1;glass=1;" vertex="1" parent="1">
          <mxGeometry x="470" y="105" width="120" height="75" as="geometry" />
        </mxCell>
        <mxCell id="iFSGIv8E7GdOGQ83MVvU-5" value="" style="sketch=0;points=[[0,0,0],[0.25,0,0],[0.5,0,0],[0.75,0,0],[1,0,0],[0,1,0],[0.25,1,0],[0.5,1,0],[0.75,1,0],[1,1,0],[0,0.25,0],[0,0.5,0],[0,0.75,0],[1,0.25,0],[1,0.5,0],[1,0.75,0]];outlineConnect=0;fontColor=#232F3E;fillColor=#01A88D;strokeColor=#ffffff;dashed=0;verticalLabelPosition=bottom;verticalAlign=top;align=center;html=1;fontSize=12;fontStyle=0;aspect=fixed;shape=mxgraph.aws4.resourceIcon;resIcon=mxgraph.aws4.augmented_ai;" vertex="1" parent="1">
          <mxGeometry x="476.25" y="127.5" width="27.5" height="27.5" as="geometry" />
        </mxCell>
        <mxCell id="iFSGIv8E7GdOGQ83MVvU-6" value="" style="image;aspect=fixed;html=1;points=[];align=center;fontSize=12;image=img/lib/azure2/analytics/Power_BI_Embedded.svg;" vertex="1" parent="1">
          <mxGeometry x="690" y="292.5" width="22.5" height="30" as="geometry" />
        </mxCell>
        <mxCell id="iFSGIv8E7GdOGQ83MVvU-9" value="" style="endArrow=classic;startArrow=classic;html=1;rounded=0;exitX=0.875;exitY=0.5;exitDx=0;exitDy=0;exitPerimeter=0;entryX=0;entryY=0.5;entryDx=0;entryDy=0;" edge="1" parent="1" source="zBAQ8DqicAWGqdjLMJXy-9" target="zBAQ8DqicAWGqdjLMJXy-18">
          <mxGeometry width="50" height="50" relative="1" as="geometry">
            <mxPoint x="410" y="350" as="sourcePoint" />
            <mxPoint x="460" y="300" as="targetPoint" />
          </mxGeometry>
        </mxCell>
        <mxCell id="iFSGIv8E7GdOGQ83MVvU-10" value="" style="endArrow=classic;startArrow=classic;html=1;rounded=0;entryX=0.5;entryY=1;entryDx=0;entryDy=0;" edge="1" parent="1" source="zBAQ8DqicAWGqdjLMJXy-19" target="zBAQ8DqicAWGqdjLMJXy-18">
          <mxGeometry width="50" height="50" relative="1" as="geometry">
            <mxPoint x="321" y="313" as="sourcePoint" />
            <mxPoint x="450" y="318" as="targetPoint" />
          </mxGeometry>
        </mxCell>
        <mxCell id="iFSGIv8E7GdOGQ83MVvU-11" value="" style="endArrow=classic;startArrow=classic;html=1;rounded=0;exitX=0.5;exitY=1;exitDx=0;exitDy=0;entryX=0.5;entryY=0;entryDx=0;entryDy=0;" edge="1" parent="1" source="iFSGIv8E7GdOGQ83MVvU-3" target="zBAQ8DqicAWGqdjLMJXy-18">
          <mxGeometry width="50" height="50" relative="1" as="geometry">
            <mxPoint x="331" y="323" as="sourcePoint" />
            <mxPoint x="460" y="328" as="targetPoint" />
          </mxGeometry>
        </mxCell>
        <mxCell id="iFSGIv8E7GdOGQ83MVvU-12" value="" style="endArrow=classic;startArrow=classic;html=1;rounded=0;exitX=0;exitY=0.5;exitDx=0;exitDy=0;entryX=1;entryY=0.5;entryDx=0;entryDy=0;" edge="1" parent="1" source="iFSGIv8E7GdOGQ83MVvU-1" target="zBAQ8DqicAWGqdjLMJXy-18">
          <mxGeometry width="50" height="50" relative="1" as="geometry">
            <mxPoint x="341" y="333" as="sourcePoint" />
            <mxPoint x="470" y="338" as="targetPoint" />
          </mxGeometry>
        </mxCell>
      </root>
    </mxGraphModel>
  </diagram>
</mxfile>
